<svg width="24" height="24" viewBox="0 0 24 24" fill="none" xmlns="http://www.w3.org/2000/svg">
<g clip-path="url(#clip0)">
<path d="M16.0076 16.0075L18.2849 12.5568L16.0076 11.97C15.7093 11.0751 15.2021 10.2297 14.4861 9.51378C13.78 8.8077 12.9448 8.29058 12.0299 7.99227L12 8.02213L9.22556 7.91272L7.99242 7.99227C7.07756 8.29058 6.24225 8.8077 5.53617 9.51378L1.84964 13.2003C-0.616547 15.6665 -0.616547 19.6747 1.84964 22.1409C4.38544 24.6767 8.39306 24.5474 10.7996 22.1409L14.4861 18.4637C15.2022 17.7476 15.7094 16.9024 16.0076 16.0075ZM8.31352 19.6547C7.19972 20.7685 5.41973 20.7387 4.33575 19.6547C3.24188 18.5608 3.24188 16.7708 4.33575 15.6769L7.99242 12.0297L9.99127 14.0086L12 15.9776L8.31352 19.6547Z" fill="#4A696F"/>
<path d="M14.4861 18.4636L10.7995 22.1408C8.39299 24.5473 4.38541 24.6766 1.84961 22.1408L4.33567 19.6547C5.41966 20.7387 7.19964 20.7685 8.31344 19.6547L12 15.9776L9.99124 14.0085L14.4861 9.51367C15.202 10.2296 15.7093 11.0749 16.0076 11.9699L18.2848 12.5567L16.0076 16.0074C15.7093 16.9024 15.2021 17.7476 14.4861 18.4636Z" fill="#384949"/>
<path d="M19.4584 20.4526L18.4639 19.4581C18.1891 19.1833 18.1891 18.7385 18.4639 18.4637C18.7388 18.1889 19.1836 18.1888 19.4584 18.4637L20.4528 19.4581C20.7277 19.733 20.7277 20.1777 20.4528 20.4526C20.178 20.7274 19.7332 20.7274 19.4584 20.4526Z" fill="#D2C5C2"/>
<path d="M4.54193 5.53602L3.54743 4.54157C3.2726 4.26674 3.2726 3.82195 3.54743 3.54717C3.82226 3.27239 4.26706 3.27234 4.54184 3.54717L5.53625 4.54157C5.81107 4.8164 5.81107 5.2612 5.53625 5.53598C5.26142 5.81076 4.81671 5.8108 4.54193 5.53602Z" fill="#DFD7D5"/>
<path d="M20.8297 14.3655C20.9302 13.9901 21.3157 13.7678 21.691 13.8683L23.0497 14.2324C23.425 14.331 23.6464 14.7185 23.5469 15.0938C23.4464 15.4692 23.0609 15.6916 22.6855 15.5911L21.3269 15.2269C20.954 15.1271 20.7291 14.7431 20.8297 14.3655Z" fill="#D2C5C2"/>
<path d="M0.453228 8.9058C0.553728 8.53042 0.939275 8.30804 1.3146 8.40854L2.67323 8.77276C3.04715 8.87083 3.27046 9.25834 3.17048 9.63414C3.06998 10.0095 2.68443 10.2319 2.3091 10.1314L0.950478 9.76717C0.577587 9.66737 0.352587 9.28337 0.453228 8.9058Z" fill="#DFD7D5"/>
<path d="M14.2326 23.0493L13.8684 21.6907C13.7679 21.3153 13.9903 20.9298 14.3656 20.8293C14.741 20.7288 15.126 20.9497 15.227 21.3265L15.5912 22.6852C15.6917 23.0606 15.4693 23.4461 15.0939 23.5466C14.7164 23.6471 14.3324 23.4222 14.2326 23.0493Z" fill="#D2C5C2"/>
<path d="M8.77313 2.67311L8.40891 1.31448C8.30841 0.939105 8.53079 0.553604 8.90616 0.453104C9.28154 0.353588 9.66751 0.573526 9.76754 0.950355L10.1318 2.30898C10.2323 2.68436 10.0099 3.06986 9.63451 3.17036C9.25698 3.27086 8.87297 3.0459 8.77313 2.67311Z" fill="#DFD7D5"/>
<path d="M22.1502 1.85888C19.684 -0.607308 15.6764 -0.617292 13.2003 1.85888L9.51374 5.53604C8.79777 6.25201 8.29058 7.09726 7.99222 7.99229C7.55464 9.30497 7.55469 10.717 7.99227 12.0297C8.29058 12.9247 8.79777 13.7701 9.51374 14.486C10.2099 15.1822 11.0452 15.6992 11.97 16.0075L11.9998 15.9777C13.0938 14.8838 13.0937 13.0938 11.9998 11.9999C10.906 10.906 10.906 9.11602 11.9998 8.02215L15.6864 4.34499C16.2234 3.80794 16.9195 3.52955 17.6753 3.52955C17.6952 3.50972 17.8642 3.51961 17.904 3.53949C18.441 3.53944 19.147 3.82782 19.6641 4.34499C20.758 5.43886 20.7581 7.22883 19.6641 8.32276L16.0075 11.97C16.4451 13.2827 16.4451 14.6948 16.0075 16.0075C16.9124 15.6992 17.7677 15.1821 18.4638 14.486L22.1503 10.8088C24.6165 8.34258 24.6164 4.32507 22.1502 1.85888Z" fill="#E51C5C"/>
<path d="M11.9998 15.9775L11.97 16.0073C11.0452 15.6991 10.2098 15.182 9.51367 14.4859L11.9998 11.9998C13.0936 13.0937 13.0937 14.8836 11.9998 15.9775Z" fill="#E51C5C"/>
<path d="M22.1501 10.8088L18.4636 14.486C17.7675 15.1821 16.9122 15.6992 16.0073 16.0075C16.4449 14.6948 16.4449 13.2827 16.0073 11.97L19.664 8.32276C20.7579 7.22884 20.7578 5.43887 19.664 4.345L22.1501 1.85889C24.6163 4.32503 24.6164 8.34254 22.1501 10.8088Z" fill="#E51C5C"/>
</g>
<defs>
<clipPath id="clip0">
<rect width="24" height="24" fill="white"/>
</clipPath>
</defs>
</svg>
