<svg width="24" height="24" viewBox="0 0 24 24" fill="none" xmlns="http://www.w3.org/2000/svg">
<g clip-path="url(#clip0)">
<path d="M16.0076 16.0078L18.2849 12.5571L16.0076 11.9704C15.7093 11.0755 15.2021 10.2301 14.4861 9.51415C13.78 8.80807 12.9448 8.29095 12.0299 7.99263L12 8.02249L9.22556 7.91309L7.99242 7.99263C7.07756 8.29095 6.24225 8.80807 5.53617 9.51415L1.84964 13.2007C-0.616547 15.6669 -0.616547 19.675 1.84964 22.1412C4.38544 24.677 8.39306 24.5478 10.7996 22.1412L14.4861 18.4641C15.2022 17.748 15.7094 16.9028 16.0076 16.0078ZM8.31352 19.6551C7.19972 20.7689 5.41973 20.7391 4.33575 19.6551C3.24188 18.5612 3.24188 16.7712 4.33575 15.6773L7.99242 12.03L9.99127 14.0089L12 15.9779L8.31352 19.6551Z" fill="white"/>
<path d="M14.4861 18.4636L10.7995 22.1408C8.39299 24.5473 4.38541 24.6766 1.84961 22.1408L4.33567 19.6547C5.41966 20.7387 7.19964 20.7685 8.31344 19.6547L12 15.9776L9.99123 14.0085L14.4861 9.51367C15.202 10.2296 15.7093 11.0749 16.0076 11.9699L18.2848 12.5567L16.0076 16.0074C15.7093 16.9024 15.2021 17.7476 14.4861 18.4636Z" fill="white"/>
<path d="M19.4584 20.4528L18.4639 19.4584C18.1891 19.1835 18.1891 18.7387 18.4639 18.4639C18.7388 18.1891 19.1836 18.1891 19.4584 18.4639L20.4528 19.4584C20.7277 19.7332 20.7277 20.178 20.4528 20.4528C20.178 20.7276 19.7332 20.7276 19.4584 20.4528Z" fill="white"/>
<path d="M4.54193 5.53578L3.54743 4.54133C3.2726 4.2665 3.2726 3.8217 3.54743 3.54692C3.82226 3.27214 4.26706 3.2721 4.54184 3.54692L5.53625 4.54133C5.81107 4.81616 5.81107 5.26095 5.53625 5.53573C5.26142 5.81051 4.81671 5.81056 4.54193 5.53578Z" fill="white"/>
<path d="M20.8297 14.3651C20.9302 13.9898 21.3157 13.7674 21.691 13.8679L23.0497 14.2321C23.425 14.3306 23.6464 14.7181 23.5469 15.0934C23.4464 15.4688 23.0609 15.6912 22.6855 15.5907L21.3269 15.2265C20.954 15.1267 20.7291 14.7427 20.8297 14.3651Z" fill="white"/>
<path d="M0.453228 8.90616C0.553728 8.53079 0.939275 8.30841 1.3146 8.40891L2.67323 8.77313C3.04715 8.87119 3.27046 9.25871 3.17048 9.63451C3.06998 10.0099 2.68443 10.2323 2.3091 10.1318L0.950478 9.76754C0.577587 9.66774 0.352587 9.28374 0.453228 8.90616Z" fill="white"/>
<path d="M14.2326 23.0489L13.8684 21.6903C13.7679 21.3149 13.9903 20.9294 14.3656 20.8289C14.741 20.7284 15.126 20.9494 15.227 21.3262L15.5912 22.6848C15.6917 23.0602 15.4693 23.4457 15.0939 23.5462C14.7164 23.6468 14.3324 23.4218 14.2326 23.0489Z" fill="white"/>
<path d="M8.77313 2.67262L8.40891 1.31399C8.30841 0.938616 8.53079 0.553116 8.90616 0.452616C9.28154 0.3531 9.66751 0.573038 9.76754 0.949866L10.1318 2.30849C10.2323 2.68387 10.0099 3.06937 9.63451 3.16987C9.25698 3.27037 8.87297 3.04542 8.77313 2.67262Z" fill="white"/>
<path d="M22.1502 1.85925C19.684 -0.606942 15.6764 -0.616926 13.2003 1.85925L9.51374 5.5364C8.79777 6.25237 8.29058 7.09762 7.99222 7.99265C7.55464 9.30534 7.55469 10.7174 7.99227 12.0301C8.29058 12.925 8.79777 13.7704 9.51374 14.4864C10.2099 15.1825 11.0452 15.6996 11.97 16.0079L11.9998 15.978C13.0938 14.8841 13.0937 13.0942 11.9998 12.0003C10.906 10.9064 10.906 9.11639 11.9998 8.02251L15.6864 4.34536C16.2234 3.80831 16.9195 3.52992 17.6753 3.52992C17.6952 3.51009 17.8642 3.51998 17.904 3.53986C18.441 3.53981 19.147 3.82818 19.6641 4.34536C20.758 5.43923 20.7581 7.2292 19.6641 8.32312L16.0075 11.9704C16.4451 13.2831 16.4451 14.6952 16.0075 16.0079C16.9124 15.6996 17.7677 15.1825 18.4638 14.4863L22.1503 10.8092C24.6165 8.34295 24.6164 4.32543 22.1502 1.85925Z" fill="white"/>
<path d="M11.9998 15.9768L11.97 16.0066C11.0452 15.6984 10.2098 15.1813 9.51367 14.4851L11.9998 11.999C13.0936 13.0929 13.0937 14.8829 11.9998 15.9768Z" fill="white"/>
<path d="M22.1501 10.8083L18.4636 14.4855C17.7675 15.1816 16.9122 15.6988 16.0073 16.007C16.4449 14.6943 16.4449 13.2822 16.0073 11.9695L19.664 8.32227C20.7579 7.22835 20.7578 5.43838 19.664 4.34451L22.1501 1.8584C24.6163 4.32454 24.6164 8.34206 22.1501 10.8083Z" fill="white"/>
</g>
<defs>
<clipPath id="clip0">
<rect width="24" height="24" fill="white"/>
</clipPath>
</defs>
</svg>
